name baseline.mot
datacolumns 19
datarows 11
range 3.55165700000000 3.56832200000000
endheader
time	ground_force1_vx	ground_force1_vy	ground_force1_vz	ground_force1_px	ground_force1_py	ground_force1_pz	ground_force2_vx	ground_force2_vy	ground_force2_vz	ground_force2_px	ground_force2_py	ground_force2_pz	ground_torque1_x	ground_torque1_y	ground_torque1_z	ground_torque2_x	ground_torque2_y	ground_torque2_z	
3.55165700000000	-5.35110100000000	42.19799400000000	-18.35853700000000	0.14372300000000	0.00000000000000	0.08451600000000	-84.48436599999999	787.99156200000004	-46.89160900000000	-0.09263000000000	0.00000000000000	-0.09531300000000	0.00000000000000	-6.12805700000000	0.00000000000000	0.00000000000000	-5.72167500000000	0.00000000000000	
3.55331800000000	-5.69537800000000	49.56979600000000	-20.75197000000000	0.14918500000000	0.00000000000000	0.08555100000000	-85.61922700000000	786.15736000000004	-46.67095300000000	-0.09361600000000	0.00000000000000	-0.09522300000000	0.00000000000000	-7.09339500000000	0.00000000000000	0.00000000000000	-5.91927300000000	0.00000000000000	
3.55498600000000	-5.89145500000000	57.06314200000000	-22.96599100000000	0.15407900000000	0.00000000000000	0.08650200000000	-86.76542400000000	784.20486200000005	-46.42754300000000	-0.09460100000000	0.00000000000000	-0.09513000000000	0.00000000000000	-8.02639400000000	0.00000000000000	0.00000000000000	-6.12651600000000	0.00000000000000	
3.55665300000000	-5.92429300000000	64.58364000000000	-24.95235800000000	0.15849700000000	0.00000000000000	0.08738400000000	-87.92152500000000	782.12945700000000	-46.16084200000000	-0.09558500000000	0.00000000000000	-0.09503500000000	0.00000000000000	-8.90688200000000	0.00000000000000	0.00000000000000	-6.34332200000000	0.00000000000000	
3.55832400000000	-5.78612700000000	72.05912600000001	-26.67835700000000	0.16251400000000	0.00000000000000	0.08820500000000	-89.08598400000000	779.92648599999995	-45.87033400000000	-0.09656500000000	0.00000000000000	-0.09493600000000	0.00000000000000	-9.71969400000000	0.00000000000000	0.00000000000000	-6.56958200000000	0.00000000000000	
3.55999900000000	-5.47619700000000	79.44198400000001	-28.12712900000000	0.16618700000000	0.00000000000000	0.08897600000000	-90.25714200000000	777.59125500000005	-45.55553300000000	-0.09754400000000	0.00000000000000	-0.09483500000000	0.00000000000000	-10.45507500000000	0.00000000000000	0.00000000000000	-6.80515700000000	0.00000000000000	
3.56165700000000	-4.99994500000000	86.70905399999999	-29.29664600000000	0.16956600000000	0.00000000000000	0.08970200000000	-91.43322499999999	775.11904500000003	-45.21597900000000	-0.09851900000000	0.00000000000000	-0.09473000000000	0.00000000000000	-11.10858000000000	0.00000000000000	0.00000000000000	-7.04987500000000	0.00000000000000	
3.56332400000000	-4.36784400000000	93.85954400000000	-30.19765100000000	0.17268800000000	0.00000000000000	0.09038900000000	-92.61235100000000	772.50513200000000	-44.85124600000000	-0.09949000000000	0.00000000000000	-0.09462300000000	0.00000000000000	-11.68055600000000	0.00000000000000	0.00000000000000	-7.30353500000000	0.00000000000000	
3.56498500000000	-3.59401700000000	100.91145800000000	-30.85090500000000	0.17558700000000	0.00000000000000	0.09104200000000	-93.79252600000000	769.74479799999995	-44.46094400000000	-0.10045700000000	0.00000000000000	-0.09451300000000	0.00000000000000	-12.17531100000000	0.00000000000000	0.00000000000000	-7.56590400000000	0.00000000000000	
3.56664800000000	-2.69479100000000	107.89709200000000	-31.28409400000000	0.17828800000000	0.00000000000000	0.09166500000000	-94.97165000000000	766.83334900000000	-44.04472000000000	-0.10142000000000	0.00000000000000	-0.09440000000000	0.00000000000000	-12.60011200000000	0.00000000000000	0.00000000000000	-7.83671700000000	0.00000000000000	
3.56832200000000	-1.68732000000000	114.85814700000000	-31.52871200000000	0.18081600000000	0.00000000000000	0.09226200000000	-96.14751900000000	763.76612899999998	-43.60226500000000	-0.10237800000000	0.00000000000000	-0.09428500000000	0.00000000000000	-12.96410500000000	0.00000000000000	0.00000000000000	-8.11567400000000	0.00000000000000	
